<svg width="129" height="55" viewBox="0 0 129 55" fill="none" xmlns="http://www.w3.org/2000/svg">
<path d="M32.1141 27.5166C32.1141 31.3581 32.9112 34.8206 34.5052 37.9042C36.1254 40.9878 38.3467 43.4443 41.169 45.2735C43.9913 47.0767 47.2317 47.9782 50.8902 47.9782C54.5749 47.9782 57.8153 47.0767 60.6115 45.2735C63.4338 43.4443 65.6419 40.9878 67.236 37.9042C68.8301 34.8206 69.6271 31.3581 69.6271 27.5166C69.6271 23.6752 68.8301 20.2257 67.236 17.1682C65.6419 14.0846 63.4338 11.6412 60.6115 9.83806C57.8153 8.03493 54.5749 7.13336 50.8902 7.13336C47.2317 7.13336 43.9913 8.03493 41.169 9.83806C38.3467 11.6412 36.1254 14.0846 34.5052 17.1682C32.9112 20.2257 32.1141 23.6752 32.1141 27.5166ZM25.176 27.5166C25.176 23.7535 25.8162 20.2518 27.0967 17.0114C28.4033 13.7449 30.2195 10.8964 32.5453 8.46611C34.8711 6.0358 37.5888 4.14121 40.6986 2.78232C43.8345 1.42344 47.2317 0.743998 50.8902 0.743998C54.5749 0.743998 57.9721 1.42344 61.0818 2.78232C64.2177 4.14121 66.9355 6.0358 69.2351 8.46611C71.5609 10.8964 73.3641 13.7449 74.6445 17.0114C75.925 20.2518 76.5653 23.7535 76.5653 27.5166C76.5653 31.3058 75.925 34.8337 74.6445 38.1002C73.3902 41.3406 71.6001 44.1891 69.2743 46.6455C66.9747 49.0758 64.27 50.9704 61.1602 52.3293C58.0505 53.6882 54.6272 54.3676 50.8902 54.3676C47.1533 54.3676 43.7038 53.6882 40.5418 52.3293C37.4059 50.9704 34.6882 49.0758 32.3885 46.6455C30.0889 44.1891 28.3119 41.3406 27.0575 38.1002C25.8032 34.8337 25.176 31.3058 25.176 27.5166Z" fill="url(#paint0_linear_3_10)"/>
<path d="M25.8387 25.3215H51.9449V28.1438C51.9449 31.75 51.3177 35.1473 50.0634 38.3354C48.809 41.4974 47.032 44.2805 44.7324 46.6847C42.4589 49.0889 39.7803 50.9704 36.6967 52.3293C33.6131 53.6882 30.2289 54.3676 26.5442 54.3676C22.7812 54.3676 19.3317 53.6751 16.1958 52.2901C13.0599 50.8789 10.3422 48.9451 8.04253 46.4887C5.74289 44.0061 3.96589 41.1446 2.71153 37.9042C1.45718 34.6638 0.830002 31.2013 0.830002 27.5166C0.830002 23.8581 1.45718 20.4086 2.71153 17.1682C3.96589 13.9278 5.74289 11.0794 8.04253 8.62291C10.3422 6.16646 13.0599 4.24573 16.1958 2.86072C19.3317 1.44957 22.7812 0.743998 26.5442 0.743998C29.1052 0.743998 31.4441 1.03145 33.5608 1.60637C35.7036 2.15515 37.6244 2.93912 39.323 3.95828C41.0477 4.95131 42.5765 6.08807 43.9092 7.36855C45.242 8.62291 46.3918 9.95566 47.3587 11.3668L41.2829 14.6203C39.715 12.4513 37.7028 10.6612 35.2463 9.25008C32.7899 7.83893 29.8892 7.13336 26.5442 7.13336C23.8265 7.13336 21.3178 7.66907 19.0181 8.7405C16.7185 9.81193 14.7194 11.2884 13.0208 13.1699C11.3483 15.0515 10.0547 17.2205 9.14009 19.6769C8.22546 22.1333 7.76814 24.7466 7.76814 27.5166C7.76814 30.2866 8.22546 32.9129 9.14009 35.3955C10.0547 37.852 11.3483 40.034 13.0208 41.9417C14.7194 43.8232 16.7185 45.2997 19.0181 46.3711C21.3178 47.4425 23.8265 47.9782 26.5442 47.9782C29.1314 47.9782 31.4963 47.534 33.6392 46.6455C35.782 45.757 37.6505 44.5288 39.2446 42.9608C40.8387 41.3929 42.093 39.5636 43.0076 37.473C43.9223 35.3825 44.4319 33.1351 44.5364 30.7309H25.8387V25.3215Z" fill="url(#paint1_linear_3_10)"/>
<path d="M84.3788 27.5166C84.3788 31.3581 85.1759 34.8206 86.77 37.9042C88.3902 40.9878 90.6114 43.4443 93.4337 45.2735C96.256 47.0767 99.4964 47.9782 103.155 47.9782C106.84 47.9782 110.08 47.0767 112.876 45.2735C115.698 43.4443 117.907 40.9878 119.501 37.9042C121.095 34.8206 121.892 31.3581 121.892 27.5166C121.892 23.6752 121.095 20.2257 119.501 17.1682C117.907 14.0846 115.698 11.6412 112.876 9.83806C110.08 8.03493 106.84 7.13336 103.155 7.13336C99.4964 7.13336 96.256 8.03493 93.4337 9.83806C90.6114 11.6412 88.3902 14.0846 86.77 17.1682C85.1759 20.2257 84.3788 23.6752 84.3788 27.5166ZM77.4407 27.5166C77.4407 23.7535 78.0809 20.2518 79.3614 17.0114C80.6681 13.7449 82.4843 10.8964 84.81 8.46611C87.1358 6.0358 89.8536 4.14121 92.9633 2.78232C96.0992 1.42344 99.4964 0.743998 103.155 0.743998C106.84 0.743998 110.237 1.42344 113.347 2.78232C116.482 4.14121 119.2 6.0358 121.5 8.46611C123.826 10.8964 125.629 13.7449 126.909 17.0114C128.19 20.2518 128.83 23.7535 128.83 27.5166C128.83 31.3058 128.19 34.8337 126.909 38.1002C125.655 41.3406 123.865 44.1891 121.539 46.6455C119.239 49.0758 116.535 50.9704 113.425 52.3293C110.315 53.6882 106.892 54.3676 103.155 54.3676C99.418 54.3676 95.9686 53.6882 92.8065 52.3293C89.6707 50.9704 86.9529 49.0758 84.6532 46.6455C82.3536 44.1891 80.5766 41.3406 79.3222 38.1002C78.0679 34.8337 77.4407 31.3058 77.4407 27.5166Z" fill="url(#paint2_linear_3_10)"/>
<path d="M78.1034 25.3215H104.21V28.1438C104.21 31.75 103.582 35.1473 102.328 38.3354C101.074 41.4974 99.2968 44.2805 96.9971 46.6847C94.7236 49.0889 92.045 50.9704 88.9614 52.3293C85.8778 53.6882 82.4936 54.3676 78.809 54.3676C75.0459 54.3676 71.5964 53.6751 68.4606 52.2901C65.3247 50.8789 62.6069 48.9451 60.3073 46.4887C58.0076 44.0061 56.2306 41.1446 54.9763 37.9042C53.7219 34.6638 53.0947 31.2013 53.0947 27.5166C53.0947 23.8581 53.7219 20.4086 54.9763 17.1682C56.2306 13.9278 58.0076 11.0794 60.3073 8.62291C62.6069 6.16646 65.3247 4.24573 68.4606 2.86072C71.5964 1.44957 75.0459 0.743998 78.809 0.743998C81.3699 0.743998 83.7088 1.03145 85.8255 1.60637C87.9684 2.15515 89.8891 2.93912 91.5877 3.95828C93.3124 4.95131 94.8412 6.08807 96.1739 7.36855C97.5067 8.62291 98.6565 9.95566 99.6234 11.3668L93.5476 14.6203C91.9797 12.4513 89.9675 10.6612 87.5111 9.25008C85.0546 7.83893 82.1539 7.13336 78.809 7.13336C76.0912 7.13336 73.5825 7.66907 71.2829 8.7405C68.9832 9.81193 66.9841 11.2884 65.2855 13.1699C63.613 15.0515 62.3195 17.2205 61.4048 19.6769C60.4902 22.1333 60.0329 24.7466 60.0329 27.5166C60.0329 30.2866 60.4902 32.9129 61.4048 35.3955C62.3195 37.852 63.613 40.034 65.2855 41.9417C66.9841 43.8232 68.9832 45.2997 71.2829 46.3711C73.5825 47.4425 76.0912 47.9782 78.809 47.9782C81.3961 47.9782 83.7611 47.534 85.9039 46.6455C88.0468 45.757 89.9152 44.5288 91.5093 42.9608C93.1034 41.3929 94.3577 39.5636 95.2724 37.473C96.187 35.3825 96.6966 33.1351 96.8011 30.7309H78.1034V25.3215Z" fill="url(#paint3_linear_3_10)"/>
<defs>
<linearGradient id="paint0_linear_3_10" x1="64.83" y1="0.743998" x2="64.83" y2="54.3676" gradientUnits="userSpaceOnUse">
<stop/>
<stop offset="1" stop-color="#511C95"/>
</linearGradient>
<linearGradient id="paint1_linear_3_10" x1="45.4655" y1="-2.10443" x2="45.4655" y2="50.1603" gradientUnits="userSpaceOnUse">
<stop stop-color="#882FFB"/>
<stop offset="1" stop-color="#511C95"/>
</linearGradient>
<linearGradient id="paint2_linear_3_10" x1="66.9932" y1="-2.10443" x2="66.9932" y2="50.1603" gradientUnits="userSpaceOnUse">
<stop/>
<stop offset="1" stop-color="#511C95"/>
</linearGradient>
<linearGradient id="paint3_linear_3_10" x1="79.5047" y1="-2.10443" x2="79.5047" y2="50.1603" gradientUnits="userSpaceOnUse">
<stop stop-color="#882FFB"/>
<stop offset="1" stop-color="#511C95"/>
</linearGradient>
</defs>
</svg>
