<svg width="169" height="44" viewBox="0 0 169 44" fill="none" xmlns="http://www.w3.org/2000/svg">
<g id="Group 3">
<path id="rion" d="M98.624 34H94.472V14.296H98.624V17.704H98.504C98.584 17.288 98.88 16.768 99.392 16.144C99.904 15.52 100.608 14.96 101.504 14.464C102.4 13.968 103.472 13.72 104.72 13.72C105.632 13.72 106.432 13.848 107.12 14.104C107.824 14.344 108.32 14.584 108.608 14.824L106.904 18.28C106.68 18.056 106.288 17.832 105.728 17.608C105.168 17.368 104.472 17.248 103.64 17.248C102.584 17.248 101.68 17.576 100.928 18.232C100.176 18.888 99.6 19.68 99.2 20.608C98.816 21.52 98.624 22.368 98.624 23.152V34ZM111.757 34V14.296H115.933V34H111.757ZM113.893 7.552C113.141 7.552 112.493 7.288 111.949 6.76C111.421 6.216 111.157 5.568 111.157 4.816C111.157 4.064 111.421 3.416 111.949 2.872C112.493 2.328 113.141 2.056 113.893 2.056C114.389 2.056 114.845 2.184 115.261 2.44C115.693 2.696 116.037 3.032 116.293 3.448C116.549 3.848 116.677 4.304 116.677 4.816C116.677 5.568 116.405 6.216 115.861 6.76C115.317 7.288 114.661 7.552 113.893 7.552ZM131.437 34.576C129.405 34.576 127.597 34.12 126.013 33.208C124.445 32.296 123.213 31.064 122.317 29.512C121.421 27.944 120.973 26.176 120.973 24.208C120.973 22.24 121.421 20.464 122.317 18.88C123.213 17.296 124.445 16.04 126.013 15.112C127.597 14.184 129.405 13.72 131.437 13.72C133.453 13.72 135.237 14.184 136.789 15.112C138.357 16.04 139.581 17.296 140.461 18.88C141.341 20.464 141.781 22.24 141.781 24.208C141.781 26.176 141.341 27.944 140.461 29.512C139.581 31.064 138.357 32.296 136.789 33.208C135.237 34.12 133.453 34.576 131.437 34.576ZM131.437 31C132.717 31 133.829 30.704 134.773 30.112C135.733 29.52 136.477 28.712 137.005 27.688C137.533 26.648 137.797 25.48 137.797 24.184C137.797 22.888 137.533 21.72 137.005 20.68C136.477 19.64 135.733 18.816 134.773 18.208C133.829 17.6 132.717 17.296 131.437 17.296C130.141 17.296 129.013 17.6 128.053 18.208C127.093 18.816 126.341 19.64 125.797 20.68C125.269 21.72 125.005 22.888 125.005 24.184C125.005 25.48 125.269 26.648 125.797 27.688C126.341 28.712 127.093 29.52 128.053 30.112C129.013 30.704 130.141 31 131.437 31ZM157.427 13.72C158.723 13.72 159.979 13.992 161.195 14.536C162.427 15.08 163.435 15.944 164.219 17.128C165.019 18.296 165.419 19.824 165.419 21.712V34H161.195V22.528C161.195 20.576 160.739 19.16 159.827 18.28C158.915 17.384 157.739 16.936 156.299 16.936C155.355 16.936 154.443 17.208 153.563 17.752C152.699 18.28 151.987 19.016 151.427 19.96C150.867 20.888 150.587 21.944 150.587 23.128V34H146.411V14.296H150.587V17.8C150.731 17.256 151.123 16.664 151.763 16.024C152.403 15.384 153.219 14.84 154.211 14.392C155.203 13.944 156.275 13.72 157.427 13.72Z" fill="black"/>
<g id="GOGOrion Vector">
<path id="O" d="M36.696 30.264C34.984 31.368 33 31.92 30.744 31.92C30.744 31.92 28.3874 31.92 27.5 31.5C27.5 31.5 26.3 32.832 24.3 34C24.3 34 25.464 35.832 30.744 35.832C33.032 35.832 35.128 35.416 37.032 34.584C38.936 33.752 40.592 32.592 42 31.104C43.424 29.6 44.52 27.856 45.288 25.872C46.072 23.872 46.464 21.712 46.464 19.392C46.464 17.088 46.072 14.944 45.288 12.96C44.504 10.96 43.4 9.216 41.976 7.728C40.568 6.24 38.904 5.08 36.984 4.248C35.08 3.416 33 3 30.744 3C28.504 3 25.964 3.164 23.464 4.332C25.964 5.74 25.964 5.78 27.464 7.28C28.964 6.83417 29.5818 6.912 30.744 6.912C33 6.912 34.984 7.464 36.696 8.568C38.424 9.672 39.776 11.168 40.752 13.056C41.728 14.928 42.216 17.04 42.216 19.392C42.216 21.744 41.728 23.864 40.752 25.752C39.776 27.64 38.424 29.144 36.696 30.264Z" fill="black"/>
<path id="Vector" d="M15.312 18.048H31.296V19.776C31.296 21.984 30.912 24.064 30.144 26.016C29.376 27.952 28.288 29.656 26.88 31.128C25.488 32.6 23.848 33.752 21.96 34.584C20.072 35.416 18 35.832 15.744 35.832C13.44 35.832 11.328 35.408 9.408 34.56C7.488 33.696 5.824 32.512 4.416 31.008C3.008 29.488 1.92 27.736 1.152 25.752C0.384 23.768 0 21.648 0 19.392C0 17.152 0.384 15.04 1.152 13.056C1.92 11.072 3.008 9.328 4.416 7.824C5.824 6.32 7.488 5.144 9.408 4.296C11.328 3.432 13.44 3 15.744 3C17.312 3 18.744 3.176 20.04 3.528C21.352 3.864 22.528 4.344 23.568 4.968C24.624 5.576 25.56 6.272 26.376 7.056C27.192 7.824 27.896 8.64 28.488 9.504L24.768 11.496C23.808 10.168 22.576 9.072 21.072 8.208C19.568 7.344 17.792 6.912 15.744 6.912C14.08 6.912 12.544 7.24 11.136 7.896C9.728 8.552 8.504 9.456 7.464 10.608C6.44 11.76 5.648 13.088 5.088 14.592C4.528 16.096 4.248 17.696 4.248 19.392C4.248 21.088 4.528 22.696 5.088 24.216C5.648 25.72 6.44 27.056 7.464 28.224C8.504 29.376 9.728 30.28 11.136 30.936C12.544 31.592 14.08 31.92 15.744 31.92C17.328 31.92 18.776 31.648 20.088 31.104C21.4 30.56 22.544 29.808 23.52 28.848C24.496 27.888 25.264 26.768 25.824 25.488C26.384 24.208 26.696 22.832 26.76 21.36H15.312V18.048Z" fill="black"/>
</g>
<g id="GOGOrion Vector_2">
<path id="O_2" d="M82.696 30.264C80.984 31.368 79 31.92 76.744 31.92C76.744 31.92 74.3874 31.92 73.5 31.5C73.5 31.5 72.3 32.832 70.3 34C70.3 34 71.464 35.832 76.744 35.832C79.032 35.832 81.128 35.416 83.032 34.584C84.936 33.752 86.592 32.592 88 31.104C89.424 29.6 90.52 27.856 91.288 25.872C92.072 23.872 92.464 21.712 92.464 19.392C92.464 17.088 92.072 14.944 91.288 12.96C90.504 10.96 89.4 9.216 87.976 7.728C86.568 6.24 84.904 5.08 82.984 4.248C81.08 3.416 79 3 76.744 3C74.504 3 71.964 3.164 69.464 4.332C71.964 5.74 71.964 5.78 73.464 7.28C74.964 6.83417 75.5818 6.912 76.744 6.912C79 6.912 80.984 7.464 82.696 8.568C84.424 9.672 85.776 11.168 86.752 13.056C87.728 14.928 88.216 17.04 88.216 19.392C88.216 21.744 87.728 23.864 86.752 25.752C85.776 27.64 84.424 29.144 82.696 30.264Z" fill="black"/>
<path id="Vector_2" d="M61.312 18.048H77.296V19.776C77.296 21.984 76.912 24.064 76.144 26.016C75.376 27.952 74.288 29.656 72.88 31.128C71.488 32.6 69.848 33.752 67.96 34.584C66.072 35.416 64 35.832 61.744 35.832C59.44 35.832 57.328 35.408 55.408 34.56C53.488 33.696 51.824 32.512 50.416 31.008C49.008 29.488 47.92 27.736 47.152 25.752C46.384 23.768 46 21.648 46 19.392C46 17.152 46.384 15.04 47.152 13.056C47.92 11.072 49.008 9.328 50.416 7.824C51.824 6.32 53.488 5.144 55.408 4.296C57.328 3.432 59.44 3 61.744 3C63.312 3 64.744 3.176 66.04 3.528C67.352 3.864 68.528 4.344 69.568 4.968C70.624 5.576 71.56 6.272 72.376 7.056C73.192 7.824 73.896 8.64 74.488 9.504L70.768 11.496C69.808 10.168 68.576 9.072 67.072 8.208C65.568 7.344 63.792 6.912 61.744 6.912C60.08 6.912 58.544 7.24 57.136 7.896C55.728 8.552 54.504 9.456 53.464 10.608C52.44 11.76 51.648 13.088 51.088 14.592C50.528 16.096 50.248 17.696 50.248 19.392C50.248 21.088 50.528 22.696 51.088 24.216C51.648 25.72 52.44 27.056 53.464 28.224C54.504 29.376 55.728 30.28 57.136 30.936C58.544 31.592 60.08 31.92 61.744 31.92C63.328 31.92 64.776 31.648 66.088 31.104C67.4 30.56 68.544 29.808 69.52 28.848C70.496 27.888 71.264 26.768 71.824 25.488C72.384 24.208 72.696 22.832 72.76 21.36H61.312V18.048Z" fill="black"/>
</g>
</g>
</svg>
