<svg xmlns="http://www.w3.org/2000/svg" xmlns:xlink="http://www.w3.org/1999/xlink" viewBox="0,0,256,256" width="96px" height="96px" fill-rule="nonzero"><g fill="none" fill-rule="nonzero" stroke="none" stroke-width="1" stroke-linecap="butt" stroke-linejoin="miter" stroke-miterlimit="10" stroke-dasharray="" stroke-dashoffset="0" font-family="none" font-weight="none" font-size="none" text-anchor="none" style="mix-blend-mode: normal"><g transform="scale(5.33333,5.33333)"><path d="M42,38c0,2.209 -1.791,4 -4,4h-28c-2.209,0 -4,-1.791 -4,-4v-28c0,-2.209 1.791,-4 4,-4h28c2.209,0 4,1.791 4,4z" fill="#ffffff"></path><path d="M18.459,33.645c-0.288,0 -0.56,-0.057 -0.822,-0.141l-0.005,0.02l-3.67,-1.062c0.644,1.878 2.406,3.237 4.5,3.237c2.641,0 4.776,-2.136 4.776,-4.776c0,-2.64 -2.135,-4.777 -4.776,-4.777c-1.141,0 -2.175,0.418 -2.998,1.087l3.536,1.022c0.029,0.007 0.055,0.018 0.084,0.024l0.049,0.016v0.002c1.177,0.301 2.049,1.359 2.049,2.626c0.002,1.501 -1.218,2.722 -2.723,2.722zM30.923,24.299c3.222,0 5.837,-2.615 5.837,-5.838c0,-3.222 -2.615,-5.837 -5.837,-5.837c-3.221,0 -5.837,2.615 -5.837,5.837c0,3.223 2.616,5.838 5.837,5.838zM30.92,14.409c2.24,0 4.056,1.813 4.056,4.052c0,2.241 -1.815,4.053 -4.056,4.053c-2.236,0 -4.049,-1.812 -4.049,-4.053c0,-2.238 1.813,-4.052 4.049,-4.052z" fill="#7b7b7d"></path><path d="M38,6h-2.75h-22.5h-2.75c-2.209,0 -4,1.791 -4,4v2.75v4.236v7.509l7.027,2.033c1.287,-1.59 3.229,-2.626 5.434,-2.626c0.07,0 0.135,0.02 0.204,0.021l3.876,-5.355c0,-0.035 -0.005,-0.072 -0.005,-0.105c0,-4.63 3.755,-8.388 8.387,-8.388c4.633,0 8.386,3.757 8.386,8.386c0,4.633 -3.753,8.387 -8.386,8.387c-0.044,0 -0.087,-0.006 -0.132,-0.007l-5.33,3.871c0.002,0.07 0.021,0.14 0.021,0.211c0,3.878 -3.142,7.021 -7.021,7.021c-3.593,0 -6.52,-2.707 -6.937,-6.188l-5.524,-1.598v2.583v2.509v2.75c0,2.209 1.791,4 4,4h2.75h22.5h2.75c2.209,0 4,-1.791 4,-4v-2.75v-22.5v-2.75c0,-2.209 -1.791,-4 -4,-4z" fill="#7b7b7d"></path></g></g></svg>