<svg xmlns="http://www.w3.org/2000/svg" xmlns:xlink="http://www.w3.org/1999/xlink" viewBox="0,0,256,256" width="32px" height="32px" fill-rule="nonzero"><g fill="#7b7b7d" fill-rule="nonzero" stroke="none" stroke-width="1" stroke-linecap="butt" stroke-linejoin="miter" stroke-miterlimit="10" stroke-dasharray="" stroke-dashoffset="0" font-family="none" font-weight="none" font-size="none" text-anchor="none" style="mix-blend-mode: normal"><g transform="scale(8,8)"><path d="M15.217,3c-8.072,0 -11.556,7.184 -11.556,7.184l1.026,0.734c0,0 -1.291,2.454 -1.255,5.602c0,6.427 5.115,12.48 12.645,12.48c6.841,0 12.492,-5.568 12.492,-12.464c0,-8.993 -6.974,-13.536 -13.352,-13.536zM15.287,5.192c6.306,0 11.2,5.082 11.2,10.99c0,6.263 -4.71,10.618 -10.199,10.618c-4.04,0 -7.684,-3.076 -7.684,-7.294c0,-2.436 1.295,-4.134 2.746,-5.04l0.212,0.23c-0.397,0.311 -1.529,2.129 -1.529,3.917c0,3.318 2.602,5.617 5.881,5.617c4.177,0 6.962,-3.562 6.962,-7.698c0,-4.812 -4.248,-8.898 -9.36,-8.898c-2.827,0 -5.227,1.216 -6.606,2.289l-0.215,-0.194c1.804,-2.781 4.928,-4.537 8.592,-4.537zM13.405,9.796c3.262,0 6.447,2.158 7.242,5.221l-0.289,0.11c-1.427,-1.885 -3.766,-3.447 -6.528,-3.447c-5.082,0 -7.751,4.618 -7.359,8.475l-0.299,0.11c0,0 -0.561,-1.239 -0.561,-2.707c-0.002,-4.254 3.491,-7.762 7.794,-7.762zM15.561,15.134c1.544,0 2.78,1.252 2.78,2.738c0,1.23 -0.79,1.958 -0.79,1.958l0.935,0.654c0,0 -0.927,1.456 -2.82,1.456c-1.811,0 -3.412,-1.461 -3.412,-3.427c0,-2.025 1.742,-3.379 3.307,-3.379z"></path></g></g></svg>